<?xml version="1.0" encoding="UTF-8"?>
<svg width="126px" height="126px" viewBox="0 0 126 126" version="1.1" xmlns="http://www.w3.org/2000/svg" xmlns:xlink="http://www.w3.org/1999/xlink">
    <!-- Generator: Sketch 44.1 (41455) - http://www.bohemiancoding.com/sketch -->
    <title>Education</title>
    <desc>Created with Sketch.</desc>
    <defs></defs>
    <g id="MOBILE" stroke="none" stroke-width="1" fill="none" fill-rule="evenodd">
        <g id="Home-Page---Mobile" transform="translate(-43.000000, -1704.000000)">
            <g id="Education" transform="translate(43.000000, 1704.000000)">
                <polygon id="Fill-1" fill="#EE9825" points="0 126 126 126 126 0 0 0"></polygon>
                <g id="Group-50" transform="translate(18.000000, 26.000000)">
                    <path d="M0.624860705,4.72172695 C1.931763,3.63978497 4.23651554,1.21160984 10.922425,1.12838353 C23.3752207,0.97400191 33.2004483,1.05976948 43.2527729,7.95484659 L43.7438779,76.6394206 C34.8708309,70.8339093 28.7191936,68.3815922 23.5460126,67.2640725 C18.3728316,66.1471882 10.7322391,66.4413392 0.624860705,68.1477961 L0.624860705,4.72172695 Z" id="Fill-2" fill="#EE9825"></path>
                    <path d="M0.624860705,4.72172695 C1.931763,3.63978497 4.23651554,1.21160984 10.922425,1.12838353 C23.3752207,0.97400191 33.2004483,1.05976948 43.2527729,7.95484659 L43.7438779,76.6394206 C34.8708309,70.8339093 28.7191936,68.3815922 23.5460126,67.2640725 C18.3728316,66.1471882 10.7322391,66.4413392 0.624860705,68.1477961 L0.624860705,4.72172695 Z" id="Stroke-4" stroke="#FFFFFF" stroke-width="4"></path>
                    <path d="M43.2525852,7.95503719 C43.2525852,7.95503719 54.9139824,2.98496548 62.9656017,1.61014314 C71.1761262,0.208002234 81.2153129,-0.380299748 86.2083178,3.75560295 L86.2946522,68.0495129 C76.9392587,66.447883 70.038139,66.1480141 65.5912929,67.1505417 C61.1450724,68.1530693 54.0644021,70.6009392 43.7436902,76.6389759 L43.2525852,7.95503719 Z" id="Fill-6" fill="#EE9825"></path>
                    <path d="M43.2525852,7.95503719 C43.2525852,7.95503719 54.9139824,2.98496548 62.9656017,1.61014314 C71.1761262,0.208002234 81.2153129,-0.380299748 86.2083178,3.75560295 L86.2946522,68.0495129 C76.9392587,66.447883 70.038139,66.1480141 65.5912929,67.1505417 C61.1450724,68.1530693 54.0644021,70.6009392 43.7436902,76.6389759 L43.2525852,7.95503719 Z" id="Stroke-8" stroke="#FFFFFF" stroke-width="4"></path>
                    <g id="Group-13" transform="translate(49.423304, 43.836757)">
                        <path d="M0.0695054308,8.554076 C2.80905792,6.81394735 13.7553813,-0.0779531892 31.791759,0.546561766" id="Fill-10" fill="#EE9825"></path>
                        <path d="M0.0695054308,8.554076 C2.80905792,6.81394735 13.7553813,-0.0779531892 31.791759,0.546561766" id="Stroke-12" stroke="#FFFFFF" stroke-width="4"></path>
                    </g>
                    <g id="Group-17" transform="translate(49.423304, 12.706306)">
                        <path d="M0.0548661232,8.10300213 C2.70558179,6.44482915 13.294681,-0.124331207 30.5202663,0.0935819459" id="Fill-14" fill="#EE9825"></path>
                        <path d="M0.0548661232,8.10300213 C2.70558179,6.44482915 13.294681,-0.124331207 30.5202663,0.0935819459" id="Stroke-16" stroke="#FFFFFF" stroke-width="4"></path>
                    </g>
                    <g id="Group-21" transform="translate(49.423304, 29.224505)">
                        <path d="M0.0695054308,8.33381218 C2.80905792,6.59368353 13.7553813,-0.298217009 31.791759,0.326297946" id="Fill-18" fill="#EE9825"></path>
                        <path d="M0.0695054308,8.33381218 C2.80905792,6.59368353 13.7553813,-0.298217009 31.791759,0.326297946" id="Stroke-20" stroke="#FFFFFF" stroke-width="4"></path>
                    </g>
                    <polygon id="Fill-22" fill="#EE9825" points="61.26031 54.5641829 50.0681214 46.9022802 74.3305842 8.95680238 85.5221472 16.6187051"></polygon>
                    <polygon id="Stroke-24" stroke="#FFFFFF" stroke-width="4" points="61.26031 54.5641829 50.0681214 46.9022802 74.3305842 8.95680238 85.5221472 16.6187051"></polygon>
                    <polygon id="Fill-26" fill="#FFFFFF" points="49.4830495 49.5309609 59.1412389 56.1426874 48.775483 61.3910272"></polygon>
                    <path d="M48.366208,47.2341689 L47.3958847,63.5096767 L61.6204119,56.307107 L48.366208,47.2341689 Z M50.5996408,51.8274987 L56.6624413,55.9780136 L50.1554567,59.2727588 L50.5996408,51.8274987 Z" id="Fill-28" fill="#FFFFFF"></path>
                    <g id="Group-33" transform="translate(45.669635, 55.272432)">
                        <path d="M11.8180503,8.30401589 L0.378119553,0.217722559" id="Fill-30" fill="#FFFFFF"></path>
                        <path d="M11.8180503,8.30401589 L0.378119553,0.217722559" id="Stroke-32" stroke="#EE9825" stroke-width="2" stroke-linecap="round"></path>
                    </g>
                    <g id="Group-37" transform="translate(5.004892, 12.706306)">
                        <path d="M0.551539044,1.00348054 C3.63642905,0.53842973 15.9372012,-1.26014793 31.6143982,7.72638721" id="Fill-34" fill="#EE9825"></path>
                        <path d="M0.551539044,1.00348054 C3.63642905,0.53842973 15.9372012,-1.26014793 31.6143982,7.72638721" id="Stroke-36" stroke="#FFFFFF" stroke-width="4"></path>
                    </g>
                    <g id="Group-41" transform="translate(5.004892, 29.859820)">
                        <path d="M0.551539044,0.565748288 C3.63642905,0.100697477 15.9372012,-1.69788018 31.6143982,7.28801964" id="Fill-38" fill="#EE9825"></path>
                        <path d="M0.551539044,0.565748288 C3.63642905,0.100697477 15.9372012,-1.69788018 31.6143982,7.28801964" id="Stroke-40" stroke="#FFFFFF" stroke-width="4"></path>
                    </g>
                    <g id="Group-45" transform="translate(5.004892, 46.378018)">
                        <path d="M0.551539044,0.483602018 C3.63642905,0.0185512072 15.9372012,-1.78002645 31.6143982,7.20650868" id="Fill-42" fill="#EE9825"></path>
                        <path d="M0.551539044,0.483602018 C3.63642905,0.0185512072 15.9372012,-1.78002645 31.6143982,7.20650868" id="Stroke-44" stroke="#FFFFFF" stroke-width="4"></path>
                    </g>
                    <path d="M38.8335788,79.0377995 C38.8335788,79.0377995 41.6482047,80.2404514 43.4468376,81.9920157" id="Stroke-46" stroke="#EE9825" stroke-width="10"></path>
                    <path d="M49.4934347,78.8671538 C49.4934347,78.8671538 46.5768342,79.822668 44.6155423,81.4668641" id="Stroke-48" stroke="#EE9825" stroke-width="10"></path>
                </g>
            </g>
        </g>
    </g>
</svg>