<?xml version="1.0" encoding="UTF-8"?>
<svg width="126px" height="126px" viewBox="0 0 126 126" version="1.1" xmlns="http://www.w3.org/2000/svg" xmlns:xlink="http://www.w3.org/1999/xlink">
    <!-- Generator: Sketch 44.1 (41455) - http://www.bohemiancoding.com/sketch -->
    <title>Community </title>
    <desc>Created with Sketch.</desc>
    <defs></defs>
    <g id="MOBILE" stroke="none" stroke-width="1" fill="none" fill-rule="evenodd">
        <g id="Home-Page---Mobile" transform="translate(-189.000000, -2206.000000)">
            <g id="Community-" transform="translate(189.000000, 2206.000000)">
                <polygon id="Fill-1" fill="#EE9825" points="0 125.95653 125.95653 125.95653 125.95653 0 0 0"></polygon>
                <g id="Group-38" transform="translate(22.680000, 21.376530)">
                    <path d="M51.02181,56.468853 C51.02181,61.669503 46.80585,65.885463 41.6052,65.885463 C36.40392,65.885463 32.18796,61.669503 32.18796,56.468853 C32.18796,51.268203 36.40392,47.051613 41.6052,47.051613 C46.80585,47.051613 51.02181,51.268203 51.02181,56.468853" id="Fill-2" fill="#EE9825"></path>
                    <path d="M51.02181,56.468853 C51.02181,61.669503 46.80585,65.885463 41.6052,65.885463 C36.40392,65.885463 32.18796,61.669503 32.18796,56.468853 C32.18796,51.268203 36.40392,47.051613 41.6052,47.051613 C46.80585,47.051613 51.02181,51.268203 51.02181,56.468853 Z" id="Stroke-4" stroke="#FFFFFF" stroke-width="4"></path>
                    <path d="M77.4018,9.94203 C77.4018,15.14268 73.18584,19.35927 67.98519,19.35927 C62.78391,19.35927 58.56795,15.14268 58.56795,9.94203 C58.56795,4.74138 62.78391,0.52542 67.98519,0.52542 C73.18584,0.52542 77.4018,4.74138 77.4018,9.94203" id="Fill-6" fill="#EE9825"></path>
                    <path d="M77.4018,9.94203 C77.4018,15.14268 73.18584,19.35927 67.98519,19.35927 C62.78391,19.35927 58.56795,15.14268 58.56795,9.94203 C58.56795,4.74138 62.78391,0.52542 67.98519,0.52542 C73.18584,0.52542 77.4018,4.74138 77.4018,9.94203 Z" id="Stroke-8" stroke="#FFFFFF" stroke-width="4"></path>
                    <path d="M24.136056,9.94203 C24.136056,15.14268 19.920096,19.35927 14.719446,19.35927 C9.518166,19.35927 5.302206,15.14268 5.302206,9.94203 C5.302206,4.74138 9.518166,0.52542 14.719446,0.52542 C19.920096,0.52542 24.136056,4.74138 24.136056,9.94203" id="Fill-10" fill="#EE9825"></path>
                    <path d="M24.136056,9.94203 C24.136056,15.14268 19.920096,19.35927 14.719446,19.35927 C9.518166,19.35927 5.302206,15.14268 5.302206,9.94203 C5.302206,4.74138 9.518166,0.52542 14.719446,0.52542 C19.920096,0.52542 24.136056,4.74138 24.136056,9.94203 Z" id="Stroke-12" stroke="#FFFFFF" stroke-width="4"></path>
                    <path d="M27.214047,81.910584 L57.253077,81.910584 C57.253077,81.910584 57.951117,67.598874 42.233247,67.773384 C42.233247,67.773384 27.039537,66.532914 27.214047,81.910584" id="Fill-14" fill="#EE9825"></path>
                    <path d="M27.214047,81.910584 L57.253077,81.910584 C57.253077,81.910584 57.951117,67.598874 42.233247,67.773384 C42.233247,67.773384 27.039537,66.532914 27.214047,81.910584 Z" id="Stroke-16" stroke="#FFFFFF" stroke-width="4" stroke-linecap="round"></path>
                    <path d="M0.328293,35.522235 L30.366693,35.522235 C30.366693,35.522235 31.065363,21.210525 15.347493,21.385035 C15.347493,21.385035 0.153783,20.144565 0.328293,35.522235" id="Fill-18" fill="#EE9825"></path>
                    <path d="M0.328293,35.522235 L30.366693,35.522235 C30.366693,35.522235 31.065363,21.210525 15.347493,21.385035 C15.347493,21.385035 0.153783,20.144565 0.328293,35.522235 Z" id="Stroke-20" stroke="#FFFFFF" stroke-width="4" stroke-linecap="round"></path>
                    <path d="M53.5941,35.522235 L83.63313,35.522235 C83.63313,35.522235 84.33117,21.210525 68.6133,21.385035 C68.6133,21.385035 53.41959,20.144565 53.5941,35.522235" id="Fill-22" fill="#EE9825"></path>
                    <path d="M53.5941,35.522235 L83.63313,35.522235 C83.63313,35.522235 84.33117,21.210525 68.6133,21.385035 C68.6133,21.385035 53.41959,20.144565 53.5941,35.522235 Z" id="Stroke-24" stroke="#FFFFFF" stroke-width="4" stroke-linecap="round"></path>
                    <g id="Group-29" transform="translate(30.240000, 14.490000)">
                        <path d="M0.446418,0.224406 L21.776958,0.224406" id="Fill-26" fill="#000000"></path>
                        <path d="M0.446418,0.224406 L21.776958,0.224406" id="Stroke-28" stroke="#FFFFFF" stroke-width="4"></path>
                    </g>
                    <g id="Group-33" transform="translate(60.480000, 43.470000)">
                        <path d="M0.045297,18.081 L11.814957,0.29106" id="Fill-30" fill="#000000"></path>
                        <path d="M0.045297,18.081 L11.814957,0.29106" id="Stroke-32" stroke="#FFFFFF" stroke-width="4"></path>
                    </g>
                    <g id="Group-37" transform="translate(10.080000, 44.100000)">
                        <path d="M0.359667,0.092106 L12.946437,17.313786" id="Fill-34" fill="#000000"></path>
                        <path d="M0.359667,0.092106 L12.946437,17.313786" id="Stroke-36" stroke="#FFFFFF" stroke-width="4"></path>
                    </g>
                </g>
            </g>
        </g>
    </g>
</svg>