<?xml version="1.0" encoding="UTF-8"?>
<svg width="126px" height="126px" viewBox="0 0 126 126" version="1.1" xmlns="http://www.w3.org/2000/svg" xmlns:xlink="http://www.w3.org/1999/xlink">
    <!-- Generator: Sketch 44.1 (41455) - http://www.bohemiancoding.com/sketch -->
    <title>Economy</title>
    <desc>Created with Sketch.</desc>
    <defs></defs>
    <g id="MOBILE" stroke="none" stroke-width="1" fill="none" fill-rule="evenodd">
        <g id="Home-Page---Mobile" transform="translate(-189.000000, -1947.000000)">
            <g id="Economy" transform="translate(189.000000, 1947.000000)">
                <polygon id="Fill-1" fill="#EE9825" points="0 125.941749 125.96535 125.941749 125.96535 0.000633165829 0 0.000633165829"></polygon>
                <polygon id="Fill-2" fill="#FFFFFF" points="43.884036 103.368184 34.112736 103.368184 34.112736 83.0296312 43.884036 71.5452693"></polygon>
                <polygon id="Stroke-3" stroke="#FFFFFF" points="43.884036 103.368184 34.112736 103.368184 34.112736 83.0296312 43.884036 71.5452693"></polygon>
                <polygon id="Fill-4" fill="#FFFFFF" points="79.881102 103.368184 70.109802 103.368184 70.109802 65.7878925 79.881102 54.5352693"></polygon>
                <polygon id="Stroke-5" stroke="#FFFFFF" points="79.881102 103.368184 70.109802 103.368184 70.109802 65.7878925 79.881102 54.5352693"></polygon>
                <polygon id="Fill-6" fill="#FFFFFF" points="97.16238 26.4570874 73.63692 30.7613487 83.75535 39.9504844 80.0415 36.6447256 62.11548 56.9883437 57.86613 53.2070774 57.87117 53.2007457 50.41827 46.5677005 25.86654 74.4320623 33.31944 81.0651075 51.25806 60.7062935 55.49922 64.4976905 55.48914 64.5090874 60.86493 69.2939216 60.86556 69.2939216 62.94204 71.1421327 87.46101 43.3157608 94.90698 50.0779719"></polygon>
                <polygon id="Fill-7" fill="#FFFFFF" points="51.292395 62.862603 46.111275 68.8523518 46.111275 70.4358995 46.111275 70.590392 46.111275 103.395347 55.883205 103.395347 55.883205 70.4871859 55.883205 70.3314271 55.883205 67.150402"></polygon>
                <polygon id="Stroke-8" stroke="#FFFFFF" points="51.292395 62.862603 46.111275 68.8523518 46.111275 70.4358995 46.111275 70.590392 46.111275 103.395347 55.883205 103.395347 55.883205 70.4871859 55.883205 70.3314271 55.883205 67.150402"></polygon>
                <polygon id="Fill-9" fill="#FFFFFF" points="63.057519 73.1589558 63.038619 73.1589558 58.082409 68.9958905 58.082409 73.8611367 58.096269 73.8605035 58.096269 103.367931 67.868199 103.367931 67.868199 73.5027648 67.868199 73.1209658 67.868199 67.7745136"></polygon>
                <polygon id="Stroke-10" stroke="#FFFFFF" points="63.057519 73.1589558 63.038619 73.1589558 58.082409 68.9958905 58.082409 73.8611367 58.096269 73.8605035 58.096269 103.367931 67.868199 103.367931 67.868199 73.5027648 67.868199 73.1209658 67.868199 67.7745136"></polygon>
                <polygon id="Fill-11" fill="#FFFFFF" points="87.483879 45.9547327 82.130139 52.5649839 82.108719 52.5649839 82.108719 103.368311 91.880649 103.368311 91.880649 52.4782402 91.887579 49.7999487"></polygon>
                <polygon id="Stroke-12" stroke="#FFFFFF" points="87.483879 45.9547327 82.130139 52.5649839 82.108719 52.5649839 82.108719 103.368311 91.880649 103.368311 91.880649 52.4782402 91.887579 49.7999487"></polygon>
            </g>
        </g>
    </g>
</svg>