<?xml version="1.0" encoding="UTF-8"?>
<svg width="126px" height="126px" viewBox="0 0 126 126" version="1.1" xmlns="http://www.w3.org/2000/svg" xmlns:xlink="http://www.w3.org/1999/xlink">
    <!-- Generator: Sketch 44.1 (41455) - http://www.bohemiancoding.com/sketch -->
    <title>Farming</title>
    <desc>Created with Sketch.</desc>
    <defs></defs>
    <g id="MOBILE" stroke="none" stroke-width="1" fill="none" fill-rule="evenodd">
        <g id="Home-Page---Mobile" transform="translate(-189.000000, -1704.000000)">
            <g id="Farming" transform="translate(189.000000, 1704.000000)">
                <polygon id="Fill-1" fill="#EE9825" points="0 125.54136 126 125.54136 126 0 0 0"></polygon>
                <g id="Group-14" transform="translate(28.350000, 36.711360)">
                    <g id="Group-5" transform="translate(33.390000, 4.410000)">
                        <path d="M1.408995,52.552962 C22.513365,48.384882 36.444555,0.383922 36.444555,0.383922 C36.444555,0.383922 -6.145335,29.110032 1.408995,52.552962" id="Fill-2" fill="#EE9825"></path>
                        <path d="M1.408995,52.552962 C22.513365,48.384882 36.444555,0.383922 36.444555,0.383922 C36.444555,0.383922 -6.145335,29.110032 1.408995,52.552962" id="Stroke-4" stroke="#FFFFFF" stroke-width="4"></path>
                    </g>
                    <path d="M45.211824,10.36665 C45.211824,15.89742 40.711734,20.38113 35.160804,20.38113 C29.609874,20.38113 25.109784,15.89742 25.109784,10.36665 C25.109784,4.83588 29.609874,0.35217 35.160804,0.35217 C40.711734,0.35217 45.211824,4.83588 45.211824,10.36665" id="Fill-6" fill="#EE9825"></path>
                    <path d="M45.211824,10.36665 C45.211824,15.89742 40.711734,20.38113 35.160804,20.38113 C29.609874,20.38113 25.109784,15.89742 25.109784,10.36665 C25.109784,4.83588 29.609874,0.35217 35.160804,0.35217 C40.711734,0.35217 45.211824,4.83588 45.211824,10.36665 Z" id="Stroke-8" stroke="#FFFFFF" stroke-width="4"></path>
                    <g id="Group-13" transform="translate(0.000000, 4.410000)">
                        <path d="M35.41419,52.540992 C14.36778,48.384252 0.49833,0.395892 0.49833,0.395892 C0.49833,0.395892 42.96096,29.096802 35.41419,52.540992" id="Fill-10" fill="#EE9825"></path>
                        <path d="M35.41419,52.540992 C14.36778,48.384252 0.49833,0.395892 0.49833,0.395892 C0.49833,0.395892 42.96096,29.096802 35.41419,52.540992" id="Stroke-12" stroke="#FFFFFF" stroke-width="4"></path>
                    </g>
                </g>
            </g>
        </g>
    </g>
</svg>