<?xml version="1.0" encoding="UTF-8"?>
<svg width="126px" height="126px" viewBox="0 0 126 126" version="1.1" xmlns="http://www.w3.org/2000/svg" xmlns:xlink="http://www.w3.org/1999/xlink">
    <!-- Generator: Sketch 44.1 (41455) - http://www.bohemiancoding.com/sketch -->
    <title>Women Empowerment </title>
    <desc>Created with Sketch.</desc>
    <defs></defs>
    <g id="MOBILE" stroke="none" stroke-width="1" fill="none" fill-rule="evenodd">
        <g id="Home-Page---Mobile" transform="translate(-44.000000, -2206.000000)">
            <g id="Women-Empowerment-" transform="translate(44.000000, 2206.000000)">
                <polygon id="Fill-1" fill="#EE9825" points="0 125.95653 125.95653 125.95653 125.95653 0 0 0"></polygon>
                <g id="Group-6" transform="translate(34.650000, 19.486530)">
                    <path d="M37.866969,29.989449 L56.611989,7.835499 L51.885729,4.401999 L35.968779,23.214429 L31.819599,23.214429 C36.950949,21.777399 40.689369,17.366769 40.689369,12.142809 C40.689369,5.754609 35.100009,0.575379 28.205289,0.575379 C21.310569,0.575379 15.721209,5.754609 15.721209,12.142809 C15.721209,17.366769 19.459629,21.777399 24.590979,23.214429 L20.688129,23.214429 L4.770549,4.401999 L0.044289,7.835499 L21.874419,33.634629 L9.768969,66.916899 L23.876559,66.916899 L27.315729,88.052769 L30.314529,88.106949 L33.281199,66.916899 L47.388159,66.916899 L34.647669,34.415199 L37.866969,29.989449 Z" id="Fill-2" fill="#EE9825"></path>
                    <path d="M37.866969,29.989449 L56.611989,7.835499 L51.885729,4.401999 L35.968779,23.214429 L31.819599,23.214429 C36.950949,21.777399 40.689369,17.366769 40.689369,12.142809 C40.689369,5.754609 35.100009,0.575379 28.205289,0.575379 C21.310569,0.575379 15.721209,5.754609 15.721209,12.142809 C15.721209,17.366769 19.459629,21.777399 24.590979,23.214429 L20.688129,23.214429 L4.770549,4.401999 L0.044289,7.835499 L21.874419,33.634629 L9.768969,66.916899 L23.876559,66.916899 L27.315729,88.052769 L30.314529,88.106949 L33.281199,66.916899 L47.388159,66.916899 L34.647669,34.415199 L37.866969,29.989449 Z" id="Stroke-4" stroke="#FFFFFF" stroke-width="4"></path>
                </g>
            </g>
        </g>
    </g>
</svg>