<?xml version="1.0" encoding="UTF-8"?>
<svg width="71px" height="71px" viewBox="0 0 71 71" version="1.1" xmlns="http://www.w3.org/2000/svg" xmlns:xlink="http://www.w3.org/1999/xlink">
    <!-- Generator: Sketch 44.1 (41455) - http://www.bohemiancoding.com/sketch -->
    <title>Uganda</title>
    <desc>Created with Sketch.</desc>
    <defs></defs>
    <g id="Symbols" stroke="none" stroke-width="1" fill="none" fill-rule="evenodd">
        <g id="Footer/Desktop" transform="translate(-709.000000, -304.000000)">
            <g id="Uganda" transform="translate(711.000000, 306.000000)">
                <polygon id="Stroke-1" stroke="#FFFFFF" stroke-width="4" points="0 67 67 67 67 0 0 0"></polygon>
                <path d="M36.3498067,45.8758317 C35.9165307,46.0753489 35.102012,46.0656733 34.1130488,45.9675829 L34.1350629,41.9922532 C34.2147803,42.0436339 34.2924965,42.0930127 34.3758829,42.1460616 C36.6786828,43.6087427 36.6483301,45.1875308 36.3498067,45.8758317 M43.3405921,32.2712959 L43.0657504,31.8866081 C43.0657504,31.8866081 30.9093419,25.5147367 31.3432849,26.4592737 C30.6398369,22.965054 31.4163314,19.7944658 32.13112,18.6951195 C35.4829212,15.7817683 34.7134312,13.5283586 34.7134312,13.5283586 L37.4061461,12.9234679 C35.1540451,3.21952627 26.0886051,8.14906857 26.0886051,8.14906857 C26.0886051,8.14906857 26.6909887,9.13097334 28.0098286,11.4944845 C26.6359537,12.7039323 27.1853035,14.7925235 27.1853035,14.7925235 C22.5199991,16.4623955 22.9476047,17.0225783 23.6460496,17.1386853 C24.3441608,17.255126 26.3917982,16.7800215 27.3454055,16.8941267 C25.1563447,19.0758036 27.2536804,19.6416584 27.2536804,19.6416584 C27.2536804,19.6416584 25.5082355,21.9117501 23.9949384,24.240229 C20.3873075,30.8760102 25.2754206,35.649075 25.2754206,35.649075 L25.8411142,35.4742472 C26.1743264,36.8712011 30.2796075,39.2573998 30.2796075,39.2573998 L30.6461743,39.3421446 C31.0867882,39.8672952 31.7171897,40.3901102 32.9349652,41.2088647 L32.4389827,40.9089216 L32.5337097,45.7704012 C30.4120252,45.4657872 27.9964868,45.0383934 26.6259473,45.2692728 C24.3038018,45.382377 23.3171734,45.9215405 22.6047197,46.6802396 C21.1057651,47.7041831 21.8725868,51.5070205 21.8725868,51.5070205 C21.8725868,51.5070205 22.3101988,50.3963304 22.9702859,49.1301637 C23.0233196,50.7786827 23.8842012,51.2878185 23.8842012,51.2878185 C23.8842012,51.2878185 23.8478447,49.3133325 24.3228139,48.1796212 C24.3595039,48.8378944 24.5646346,49.8815227 25.1636827,50.2271745 C26.0305681,48.2513539 26.6989938,47.1920445 27.5031726,46.9364757 C27.9981545,46.971508 30.2108971,47.0072075 32.5583921,47.0465771 L32.5653965,47.4062419 L33.024689,55.2905068 C33.024689,55.2905068 29.3166609,54.2942555 26.295737,56.7618626 C27.2880356,57.0501282 28.3420402,56.2000115 30.0614686,56.717822 C29.2589575,57.8091609 28.1902769,59.7586239 28.992788,60.1029412 C30.7125499,58.726673 33.8452116,55.5157143 39.119237,56.8919825 C37.7433608,55.2861695 35.2998046,55.0079131 34.8168304,55.1914155 C34.6237074,53.5065296 34.1050437,47.4062419 34.1050437,47.4062419 L34.1067115,47.0732684 C36.0853049,47.1083007 37.9111343,47.1473366 38.6162501,47.1920445 C39.3840724,46.4974044 39.3106923,46.6071722 39.4204289,45.5832287 C36.8251094,41.6342566 37.4098151,40.9089216 37.4098151,40.9089216 L38.0685679,40.7130745 C38.7269872,40.5172274 42.0597764,41.2639154 42.0597764,41.2639154 L43.1054423,42.7783108 L43.2755507,42.2044487 C43.2755507,42.2044487 43.5040295,42.621166 43.0107153,44.308721 C44.1801268,43.454267 44.3248856,43.2007 44.5540315,41.7153313 C45.1777621,46.2078042 41.5821389,47.33184 41.5821389,47.33184 L42.344958,47.8016062 L41.7172249,48.6590629 C41.7172249,48.6590629 42.2485633,48.9369857 44.3295553,47.6618107 C42.1865238,50.5197775 45.5386586,47.8266292 45.5386586,47.8266292 L43.7935472,50.354959 C43.7935472,50.354959 46.0873414,49.9872868 47.626655,47.6618107 C55.4292908,36.778449 43.3405921,32.2712959 43.3405921,32.2712959" id="Fill-3" fill="#FFFFFF"></path>
                <path d="M30.5441176,13.3014706 C30.5441176,13.5736358 30.3235788,13.7941176 30.0513433,13.7941176 C29.7793624,13.7941176 29.5588235,13.5736358 29.5588235,13.3014706 C29.5588235,13.02956 29.7793624,12.8088235 30.0513433,12.8088235 C30.3235788,12.8088235 30.5441176,13.02956 30.5441176,13.3014706" id="Fill-4" fill="#006E71"></path>
            </g>
        </g>
    </g>
</svg>