<?xml version="1.0" encoding="UTF-8"?>
<svg width="165px" height="165px" viewBox="0 0 165 165" version="1.1" xmlns="http://www.w3.org/2000/svg" xmlns:xlink="http://www.w3.org/1999/xlink">
    <!-- Generator: Sketch 44.1 (41455) - http://www.bohemiancoding.com/sketch -->
    <title>Women Empowerment </title>
    <desc>Created with Sketch.</desc>
    <defs>
        <rect id="path-1" x="0.7" y="0.39934" width="165" height="165"></rect>
    </defs>
    <g id="DESKTOP" stroke="none" stroke-width="1" fill="none" fill-rule="evenodd">
        <g id="Projects-Overview-Desktop-" transform="translate(-212.000000, -2239.000000)">
            <g id="PROGRAMS-SECTION" transform="translate(174.000000, 1331.000000)">
                <g id="WOMEN-EMPOWERMENT" transform="translate(4.000000, 907.000000)">
                    <g id="Women-Empowerment-" transform="translate(33.000000, 0.000000)">
                        <g id="Group-6" transform="translate(0.300000, 0.600660)">
                            <g id="Rectangle-8">
                                <use fill="#FFFFFF" fill-rule="evenodd" xlink:href="#path-1"></use>
                                <rect stroke="#EE9825" stroke-width="4" x="2.7" y="2.39934" width="161" height="161"></rect>
                            </g>
                            <path d="M96.691418,63.937978 L122.279858,33.696078 L115.828138,29.009078 L94.100238,54.689538 L88.436278,54.689538 C95.440978,52.727878 100.544218,46.707018 100.544218,39.575898 C100.544218,30.855498 92.914298,23.785438 83.502458,23.785438 C74.090618,23.785438 66.460698,30.855498 66.460698,39.575898 C66.460698,46.707018 71.563938,52.727878 78.568638,54.689538 L73.240938,54.689538 L51.512178,29.009078 L45.060458,33.696078 L74.860318,68.913938 L58.335418,114.346878 L77.593398,114.346878 L82.288138,143.199018 L86.381738,143.272978 L90.431478,114.346878 L109.688598,114.346878 L92.296818,69.979478 L96.691418,63.937978 Z" id="Fill-2" fill="#EE9825"></path>
                            <path d="M96.691418,63.937978 L122.279858,33.696078 L115.828138,29.009078 L94.100238,54.689538 L88.436278,54.689538 C95.440978,52.727878 100.544218,46.707018 100.544218,39.575898 C100.544218,30.855498 92.914298,23.785438 83.502458,23.785438 C74.090618,23.785438 66.460698,30.855498 66.460698,39.575898 C66.460698,46.707018 71.563938,52.727878 78.568638,54.689538 L73.240938,54.689538 L51.512178,29.009078 L45.060458,33.696078 L74.860318,68.913938 L58.335418,114.346878 L77.593398,114.346878 L82.288138,143.199018 L86.381738,143.272978 L90.431478,114.346878 L109.688598,114.346878 L92.296818,69.979478 L96.691418,63.937978 Z" id="Stroke-4" stroke="#FFFFFF" stroke-width="4"></path>
                        </g>
                    </g>
                </g>
            </g>
        </g>
    </g>
</svg>