<?xml version="1.0" encoding="UTF-8"?>
<svg width="71px" height="71px" viewBox="0 0 71 71" version="1.1" xmlns="http://www.w3.org/2000/svg" xmlns:xlink="http://www.w3.org/1999/xlink">
    <!-- Generator: Sketch 44.1 (41455) - http://www.bohemiancoding.com/sketch -->
    <title>Canada</title>
    <desc>Created with Sketch.</desc>
    <defs></defs>
    <g id="Symbols" stroke="none" stroke-width="1" fill="none" fill-rule="evenodd">
        <g id="Footer/Desktop" transform="translate(-708.000000, -494.000000)">
            <g id="Canada" transform="translate(710.000000, 496.000000)">
                <polygon id="Stroke-1" stroke="#FFFFFF" stroke-width="4" points="0 67 67 67 67 0 0 0"></polygon>
                <path d="M33.8973217,59 L35.96199,59 L35.432718,47.6118373 C35.432718,47.6118373 35.6545726,47.0770368 36.0052788,46.8609694 C36.4418859,46.5928982 47.3844593,48.2922484 47.3844593,48.2922484 C47.3844593,48.2922484 46.3654837,45.2075839 46.39051,44.8593261 C46.4158745,44.5110684 46.2897285,44.4117579 46.6174375,43.8145528 L58,34.6940916 L55.2690914,33.5775196 C55.2690914,33.5775196 54.7398193,33.3470253 54.9498372,32.621656 C55.159855,31.8962868 57.0019924,25.4203031 57.0019924,25.4203031 L50.4758817,26.6764466 C50.4758817,26.6764466 49.9763706,26.7643498 49.5485564,26.2718235 C49.3882529,25.6910584 48.6905607,23.0633563 48.6905607,23.0633563 L43.2182595,29.1219676 C43.2182595,29.1219676 42.0234235,29.8959855 41.7559129,28.5412025 C41.8986303,27.1867549 44.1097363,16.2528707 44.1097363,16.2528707 L40.3635722,18.0448212 C40.3635722,18.0448212 39.5265445,18.2219696 39.2759434,17.7274302 C38.891418,17.0510452 34.9920525,10 34.9920525,10 L30.7257475,17.7760789 C30.7257475,17.7760789 30.5377122,18.0612611 29.9424925,18.0894438 C29.8291978,18.0951475 29.7832036,18.0958185 29.7108303,18.0629386 C28.937721,17.7109903 25.9609461,16.1924791 25.9609461,16.1924791 L28.1828742,28.125172 C28.1828742,28.125172 28.4760875,29.8245222 26.8074432,29.1078762 C26.7925627,29.1011661 26.779035,29.0924428 26.7675364,29.0807 C25.7624268,28.0027115 21.2921914,23.1572987 21.2921914,23.1572987 L20.4132278,26.1406397 C20.4132278,26.1406397 20.2468368,26.7636788 19.3005727,26.6539676 C18.4381805,26.434545 12.921576,25.317302 12.921576,25.317302 L14.9476904,32.4646381 C14.9476904,32.4646381 15.2260232,33.1235767 14.6135557,33.4255342 C14.0014263,33.7274918 12,34.7434114 12,34.7434114 L23.3653146,43.8880292 C23.3653146,43.8880292 23.6233559,44.0809465 23.5543645,45.0451978 C23.2577692,45.8779297 22.5678555,48.1734784 22.5678555,48.1734784 L33.5148254,46.8015844 C33.5148254,46.8015844 34.1962843,46.7170363 34.3853342,47.5860031 C34.2821853,48.2996296 33.8973217,59 33.8973217,59" id="Fill-3" fill="#FFFFFF"></path>
            </g>
        </g>
    </g>
</svg>