<?xml version="1.0" encoding="UTF-8"?>
<svg width="165px" height="165px" viewBox="0 0 165 165" version="1.1" xmlns="http://www.w3.org/2000/svg" xmlns:xlink="http://www.w3.org/1999/xlink">
    <!-- Generator: Sketch 44.1 (41455) - http://www.bohemiancoding.com/sketch -->
    <title>Page 1 Copy</title>
    <desc>Created with Sketch.</desc>
    <defs>
        <rect id="path-1" x="0.04" y="0.81934" width="165" height="165"></rect>
    </defs>
    <g id="DESKTOP" stroke="none" stroke-width="1" fill="none" fill-rule="evenodd">
        <g id="Projects-Overview-Desktop-" transform="translate(-214.000000, -2838.000000)">
            <g id="PROGRAMS-SECTION" transform="translate(174.000000, 1331.000000)">
                <g id="COMMUNITY-ICON" transform="translate(39.000000, 1506.000000)">
                    <g id="Page-1-Copy">
                        <g id="Group-38" transform="translate(0.960000, 0.180660)">
                            <g id="Rectangle-8">
                                <use fill="#FFFFFF" fill-rule="evenodd" xlink:href="#path-1"></use>
                                <rect stroke="#EE9825" stroke-width="4" x="2.04" y="2.81934" width="161" height="161"></rect>
                            </g>
                            <path d="M93.64882,105.084466 C93.64882,112.183766 87.8937,117.938886 80.7944,117.938886 C73.69424,117.938886 67.93912,112.183766 67.93912,105.084466 C67.93912,97.985166 73.69424,92.229186 80.7944,92.229186 C87.8937,92.229186 93.64882,97.985166 93.64882,105.084466" id="Fill-2" fill="#EE9825"></path>
                            <path d="M93.64882,105.084466 C93.64882,112.183766 87.8937,117.938886 80.7944,117.938886 C73.69424,117.938886 67.93912,112.183766 67.93912,105.084466 C67.93912,97.985166 73.69424,92.229186 80.7944,92.229186 C87.8937,92.229186 93.64882,97.985166 93.64882,105.084466 Z" id="Stroke-4" stroke="#FFFFFF" stroke-width="4"></path>
                            <path d="M129.6596,41.57166 C129.6596,48.67096 123.90448,54.42694 116.80518,54.42694 C109.70502,54.42694 103.9499,48.67096 103.9499,41.57166 C103.9499,34.47236 109.70502,28.71724 116.80518,28.71724 C123.90448,28.71724 129.6596,34.47236 129.6596,41.57166" id="Fill-6" fill="#EE9825"></path>
                            <path d="M129.6596,41.57166 C129.6596,48.67096 123.90448,54.42694 116.80518,54.42694 C109.70502,54.42694 103.9499,48.67096 103.9499,41.57166 C103.9499,34.47236 109.70502,28.71724 116.80518,28.71724 C123.90448,28.71724 129.6596,34.47236 129.6596,41.57166 Z" id="Stroke-8" stroke="#FFFFFF" stroke-width="4"></path>
                            <path d="M56.947632,41.57166 C56.947632,48.67096 51.192512,54.42694 44.093212,54.42694 C36.993052,54.42694 31.237932,48.67096 31.237932,41.57166 C31.237932,34.47236 36.993052,28.71724 44.093212,28.71724 C51.192512,28.71724 56.947632,34.47236 56.947632,41.57166" id="Fill-10" fill="#EE9825"></path>
                            <path d="M56.947632,41.57166 C56.947632,48.67096 51.192512,54.42694 44.093212,54.42694 C36.993052,54.42694 31.237932,48.67096 31.237932,41.57166 C31.237932,34.47236 36.993052,28.71724 44.093212,28.71724 C51.192512,28.71724 56.947632,34.47236 56.947632,41.57166 Z" id="Stroke-12" stroke="#FFFFFF" stroke-width="4"></path>
                            <path d="M61.149334,139.814448 L102.154994,139.814448 C102.154994,139.814448 103.107874,120.277828 81.651734,120.516048 C81.651734,120.516048 60.911114,118.822708 61.149334,139.814448" id="Fill-14" fill="#EE9825"></path>
                            <path d="M61.149334,139.814448 L102.154994,139.814448 C102.154994,139.814448 103.107874,120.277828 81.651734,120.516048 C81.651734,120.516048 60.911114,118.822708 61.149334,139.814448 Z" id="Stroke-16" stroke="#FFFFFF" stroke-width="4" stroke-linecap="round"></path>
                            <path d="M24.448146,76.49067 L65.452946,76.49067 C65.452946,76.49067 66.406686,56.95405 44.950546,57.19227 C44.950546,57.19227 24.209926,55.49893 24.448146,76.49067" id="Fill-18" fill="#EE9825"></path>
                            <path d="M24.448146,76.49067 L65.452946,76.49067 C65.452946,76.49067 66.406686,56.95405 44.950546,57.19227 C44.950546,57.19227 24.209926,55.49893 24.448146,76.49067 Z" id="Stroke-20" stroke="#FFFFFF" stroke-width="4" stroke-linecap="round"></path>
                            <path d="M97.1602,76.49067 L138.16586,76.49067 C138.16586,76.49067 139.11874,56.95405 117.6626,57.19227 C117.6626,57.19227 96.92198,55.49893 97.1602,76.49067" id="Fill-22" fill="#EE9825"></path>
                            <path d="M97.1602,76.49067 L138.16586,76.49067 C138.16586,76.49067 139.11874,56.95405 117.6626,57.19227 C117.6626,57.19227 96.92198,55.49893 97.1602,76.49067 Z" id="Stroke-24" stroke="#FFFFFF" stroke-width="4" stroke-linecap="round"></path>
                            <g id="Group-29" transform="translate(65.280000, 47.780000)">
                                <path d="M0.609396,0.306332 L29.727276,0.306332" id="Fill-26" fill="#000000"></path>
                                <path d="M0.609396,0.306332 L29.727276,0.306332" id="Stroke-28" stroke="#EE9825" stroke-width="4"></path>
                            </g>
                            <g id="Group-33" transform="translate(106.560000, 87.340000)">
                                <path d="M0.061834,24.682 L16.128354,0.39732" id="Fill-30" fill="#000000"></path>
                                <path d="M0.061834,24.682 L16.128354,0.39732" id="Stroke-32" stroke="#EE9825" stroke-width="4"></path>
                            </g>
                            <g id="Group-37" transform="translate(37.760000, 88.200000)">
                                <path d="M0.490974,0.125732 L17.672914,23.634692" id="Fill-34" fill="#000000"></path>
                                <path d="M0.490974,0.125732 L17.672914,23.634692" id="Stroke-36" stroke="#EE9825" stroke-width="4"></path>
                            </g>
                        </g>
                    </g>
                </g>
            </g>
        </g>
    </g>
</svg>