<?xml version="1.0" encoding="UTF-8"?>
<svg width="165px" height="165px" viewBox="0 0 165 165" version="1.1" xmlns="http://www.w3.org/2000/svg" xmlns:xlink="http://www.w3.org/1999/xlink">
    <!-- Generator: Sketch 44.1 (41455) - http://www.bohemiancoding.com/sketch -->
    <title>Education </title>
    <desc>Created with Sketch.</desc>
    <defs>
        <rect id="path-1" x="0" y="0" width="165" height="165"></rect>
    </defs>
    <g id="DESKTOP" stroke="none" stroke-width="1" fill="none" fill-rule="evenodd">
        <g id="Projects-Overview-Desktop-" transform="translate(-205.000000, -1331.000000)">
            <g id="PROGRAMS-SECTION" transform="translate(174.000000, 1331.000000)">
                <g id="EDUCATION-ICON">
                    <g id="Education-" transform="translate(31.000000, 0.000000)">
                        <g id="Rectangle-8">
                            <use fill="#FFFFFF" fill-rule="evenodd" xlink:href="#path-1"></use>
                            <rect stroke="#EE9825" stroke-width="4" x="2" y="2" width="161" height="161"></rect>
                        </g>
                        <g id="Group-50" transform="translate(19.671642, 33.493920)">
                            <path d="M0.854694527,6.391606 C2.64229652,4.927026 5.79477413,1.640106 14.9398687,1.527446 C31.973003,1.318466 45.4121075,1.434566 59.1618388,10.768146 L59.8335801,103.743606 C47.6968836,95.884926 39.2825751,92.565326 32.2066149,91.052586 C25.1306547,89.540706 14.6797294,89.938886 0.854694527,92.248846 L0.854694527,6.391606 Z" id="Fill-2" fill="#EE9825"></path>
                            <path d="M0.854694527,6.391606 C2.64229652,4.927026 5.79477413,1.640106 14.9398687,1.527446 C31.973003,1.318466 45.4121075,1.434566 59.1618388,10.768146 L59.8335801,103.743606 C47.6968836,95.884926 39.2825751,92.565326 32.2066149,91.052586 C25.1306547,89.540706 14.6797294,89.938886 0.854694527,92.248846 L0.854694527,6.391606 Z" id="Stroke-4" stroke="#FFFFFF" stroke-width="4"></path>
                            <path d="M59.1615821,10.768404 C59.1615821,10.768404 75.1122289,4.040624 86.1253632,2.179584 C97.3558507,0.281564 111.087612,-0.514796 117.917124,5.083804 L118.035214,92.115804 C105.238756,89.947744 95.7992935,89.541824 89.7168259,90.898904 C83.6352139,92.255984 73.9501592,95.569564 59.8333234,103.743004 L59.1615821,10.768404 Z" id="Fill-6" fill="#EE9825"></path>
                            <path d="M59.1615821,10.768404 C59.1615821,10.768404 75.1122289,4.040624 86.1253632,2.179584 C97.3558507,0.281564 111.087612,-0.514796 117.917124,5.083804 L118.035214,92.115804 C105.238756,89.947744 95.7992935,89.541824 89.7168259,90.898904 C83.6352139,92.255984 73.9501592,95.569564 59.8333234,103.743004 L59.1615821,10.768404 Z" id="Stroke-8" stroke="#FFFFFF" stroke-width="4"></path>
                            <g id="Group-13" transform="translate(67.601990, 59.340000)">
                                <path d="M0.0950706468,11.579298 C3.84227463,9.223758 18.8148318,-0.105522 43.4852796,0.739858" id="Fill-10" fill="#EE9825"></path>
                                <path d="M0.0950706468,11.579298 C3.84227463,9.223758 18.8148318,-0.105522 43.4852796,0.739858" id="Stroke-12" stroke="#FFFFFF" stroke-width="4"></path>
                            </g>
                            <g id="Group-17" transform="translate(67.601990, 17.200000)">
                                <path d="M0.0750467662,10.968698 C3.70073831,8.724098 18.1846786,-0.168302 41.7461114,0.126678" id="Fill-14" fill="#EE9825"></path>
                                <path d="M0.0750467662,10.968698 C3.70073831,8.724098 18.1846786,-0.168302 41.7461114,0.126678" id="Stroke-16" stroke="#FFFFFF" stroke-width="4"></path>
                            </g>
                            <g id="Group-21" transform="translate(67.601990, 39.560000)">
                                <path d="M0.0950706468,11.281136 C3.84227463,8.925596 18.8148318,-0.403684 43.4852796,0.441696" id="Fill-18" fill="#EE9825"></path>
                                <path d="M0.0950706468,11.281136 C3.84227463,8.925596 18.8148318,-0.403684 43.4852796,0.441696" id="Stroke-20" stroke="#FFFFFF" stroke-width="4"></path>
                            </g>
                            <polygon id="Fill-22" fill="#EE9825" points="83.7928378 73.861272 68.4839821 63.489672 101.670569 12.124452 116.978569 22.496052"></polygon>
                            <polygon id="Stroke-24" stroke="#FFFFFF" stroke-width="4" points="83.7928378 73.861272 68.4839821 63.489672 101.670569 12.124452 116.978569 22.496052"></polygon>
                            <polygon id="Fill-26" fill="#FFFFFF" points="67.6837114 67.048008 80.8943383 75.998028 66.7158905 83.102488"></polygon>
                            <path d="M66.1560776,63.938936 L64.8288537,85.970416 L84.285391,76.220596 L66.1560776,63.938936 Z M69.211003,70.156736 L77.503799,75.775116 L68.6034408,80.235076 L69.211003,70.156736 Z" id="Fill-28" fill="#FFFFFF"></path>
                            <g id="Group-33" transform="translate(62.467662, 74.820000)">
                                <path d="M16.1649194,11.240802 L0.51719801,0.294722" id="Fill-30" fill="#FFFFFF"></path>
                                <path d="M16.1649194,11.240802 L0.51719801,0.294722" id="Stroke-32" stroke="#EE9825" stroke-width="2" stroke-linecap="round"></path>
                            </g>
                            <g id="Group-37" transform="translate(6.845771, 17.200000)">
                                <path d="M0.75440398,1.35837 C4.97396617,0.72885 21.7991602,-1.70581 43.2426826,10.45889" id="Fill-34" fill="#EE9825"></path>
                                <path d="M0.75440398,1.35837 C4.97396617,0.72885 21.7991602,-1.70581 43.2426826,10.45889" id="Stroke-36" stroke="#FFFFFF" stroke-width="4"></path>
                            </g>
                            <g id="Group-41" transform="translate(6.845771, 40.420000)">
                                <path d="M0.75440398,0.76583 C4.97396617,0.13631 21.7991602,-2.29835 43.2426826,9.86549" id="Fill-38" fill="#EE9825"></path>
                                <path d="M0.75440398,0.76583 C4.97396617,0.13631 21.7991602,-2.29835 43.2426826,9.86549" id="Stroke-40" stroke="#FFFFFF" stroke-width="4"></path>
                            </g>
                            <g id="Group-45" transform="translate(6.845771, 62.780000)">
                                <path d="M0.75440398,0.654632 C4.97396617,0.025112 21.7991602,-2.409548 43.2426826,9.755152" id="Fill-42" fill="#EE9825"></path>
                                <path d="M0.75440398,0.654632 C4.97396617,0.025112 21.7991602,-2.409548 43.2426826,9.755152" id="Stroke-44" stroke="#FFFFFF" stroke-width="4"></path>
                            </g>
                        </g>
                    </g>
                </g>
            </g>
        </g>
    </g>
</svg>